<svg xmlns="http://www.w3.org/2000/svg" viewBox="0 0 30 20" shape-rendering="crispEdges"><rect x="0" y="0" width="15" height="20" fill="#006233"></rect><rect x="15" y="0" width="15" height="20" fill="#F4F8F0"></rect><rect x="13.13" y="7" width="2.94" height="1" fill="#D21034"></rect><rect x="12.12" y="8" width="4.96" height="1" fill="#D21034"></rect><rect x="11.74" y="9" width="5.71" height="1" fill="#D21034"></rect><rect x="11.74" y="10" width="5.71" height="1" fill="#D21034"></rect><rect x="12.12" y="11" width="4.96" height="1" fill="#D21034"></rect><rect x="13.13" y="12" width="2.94" height="1" fill="#D21034"></rect><rect x="14.22" y="8" width="3.35" height="1" fill="#F4F8F0"></rect><rect x="13.71" y="9" width="4.39" height="1" fill="#F4F8F0"></rect><rect x="13.71" y="10" width="4.39" height="1" fill="#F4F8F0"></rect><rect x="14.22" y="11" width="3.35" height="1" fill="#F4F8F0"></rect><polygon points="16.7,8.65 17.02,9.56 17.98,9.58 17.22,10.17 17.49,11.09 16.7,10.55 15.91,11.09 16.18,10.17 15.42,9.58 16.38,9.56" fill="#D21034"></polygon></svg>