<svg xmlns="http://www.w3.org/2000/svg" viewBox="0 0 30 20" shape-rendering="crispEdges"><rect x="0" y="0" width="30" height="6.67" fill="#74B4E4"></rect><rect x="0" y="6.67" width="30" height="6.66" fill="#F4F8F0"></rect><rect x="0" y="13.33" width="30" height="6.67" fill="#74B4E4"></rect><rect x="14.2" y="8" width="1.6" height="1" fill="#F4C430"></rect><rect x="13.38" y="9" width="3.25" height="1" fill="#F4C430"></rect><rect x="13.38" y="10" width="3.25" height="1" fill="#F4C430"></rect><rect x="14.2" y="11" width="1.6" height="1" fill="#F4C430"></rect><rect x="14.55" y="6.2" width="0.9" height="1.4" fill="#F4C430"></rect><rect x="14.55" y="12.4" width="0.9" height="1.4" fill="#F4C430"></rect><rect x="11.2" y="9.55" width="1.4" height="0.9" fill="#F4C430"></rect><rect x="17.4" y="9.55" width="1.4" height="0.9" fill="#F4C430"></rect><rect x="16.5" y="7.2" width="1.1" height="1.1" fill="#F4C430"></rect><rect x="12.4" y="7.2" width="1.1" height="1.1" fill="#F4C430"></rect><rect x="16.5" y="11.7" width="1.1" height="1.1" fill="#F4C430"></rect><rect x="12.4" y="11.7" width="1.1" height="1.1" fill="#F4C430"></rect></svg>