<svg xmlns="http://www.w3.org/2000/svg" viewBox="0 0 30 20" shape-rendering="crispEdges"><rect x="0" y="0" width="30" height="20" fill="#00247D"></rect><rect x="-0.9" y="0" width="1.8" height="1" fill="#F4F8F0"></rect><rect x="11.1" y="0" width="1.8" height="1" fill="#F4F8F0"></rect><rect x="0.3" y="1" width="1.8" height="1" fill="#F4F8F0"></rect><rect x="9.9" y="1" width="1.8" height="1" fill="#F4F8F0"></rect><rect x="1.5" y="2" width="1.8" height="1" fill="#F4F8F0"></rect><rect x="8.7" y="2" width="1.8" height="1" fill="#F4F8F0"></rect><rect x="2.7" y="3" width="1.8" height="1" fill="#F4F8F0"></rect><rect x="7.5" y="3" width="1.8" height="1" fill="#F4F8F0"></rect><rect x="3.9" y="4" width="1.8" height="1" fill="#F4F8F0"></rect><rect x="6.3" y="4" width="1.8" height="1" fill="#F4F8F0"></rect><rect x="5.1" y="5" width="1.8" height="1" fill="#F4F8F0"></rect><rect x="5.1" y="5" width="1.8" height="1" fill="#F4F8F0"></rect><rect x="6.3" y="6" width="1.8" height="1" fill="#F4F8F0"></rect><rect x="3.9" y="6" width="1.8" height="1" fill="#F4F8F0"></rect><rect x="7.5" y="7" width="1.8" height="1" fill="#F4F8F0"></rect><rect x="2.7" y="7" width="1.8" height="1" fill="#F4F8F0"></rect><rect x="8.7" y="8" width="1.8" height="1" fill="#F4F8F0"></rect><rect x="1.5" y="8" width="1.8" height="1" fill="#F4F8F0"></rect><rect x="9.9" y="9" width="1.8" height="1" fill="#F4F8F0"></rect><rect x="0.3" y="9" width="1.8" height="1" fill="#F4F8F0"></rect><rect x="4.8" y="0" width="2.4" height="10" fill="#F4F8F0"></rect><rect x="0" y="3.8" width="12" height="2.4" fill="#F4F8F0"></rect><rect x="5.4" y="0" width="1.2" height="10" fill="#CF142B"></rect><rect x="0" y="4.4" width="12" height="1.2" fill="#CF142B"></rect><polygon points="6,13.5 6.37,14.73 7.56,14.25 6.83,15.31 7.95,15.95 6.66,16.03 6.87,17.3 6,16.35 5.13,17.3 5.34,16.03 4.05,15.95 5.17,15.31 4.44,14.25 5.63,14.73" fill="#F4F8F0"></polygon><polygon points="22,3.9 22.24,4.68 23.05,4.66 22.38,5.12 22.65,5.89 22,5.4 21.35,5.89 21.62,5.12 20.95,4.66 21.76,4.68" fill="#F4F8F0"></polygon><polygon points="26,7.9 26.24,8.68 27.05,8.66 26.38,9.12 26.65,9.89 26,9.4 25.35,9.89 25.62,9.12 24.95,8.66 25.76,8.68" fill="#F4F8F0"></polygon><polygon points="22,13.4 22.24,14.18 23.05,14.16 22.38,14.62 22.65,15.39 22,14.9 21.35,15.39 21.62,14.62 20.95,14.16 21.76,14.18" fill="#F4F8F0"></polygon><polygon points="18,9.9 18.24,10.68 19.05,10.66 18.38,11.12 18.65,11.89 18,11.4 17.35,11.89 17.62,11.12 16.95,10.66 17.76,10.68" fill="#F4F8F0"></polygon><polygon points="24.5,16.2 24.74,16.68 25.26,16.75 24.88,17.12 24.97,17.65 24.5,17.4 24.03,17.65 24.12,17.12 23.74,16.75 24.26,16.68" fill="#F4F8F0"></polygon></svg>