<svg xmlns="http://www.w3.org/2000/svg" viewBox="0 0 30 20" shape-rendering="crispEdges"><rect x="0" y="0" width="30" height="20" fill="#002395"></rect><polygon points="8,0 30,0 30,20" fill="#FECB00"></polygon><polygon points="4.4,-2.05 4.66,-1.36 5.4,-1.32 4.83,-0.86 5.02,-0.15 4.4,-0.55 3.78,-0.15 3.97,-0.86 3.4,-1.32 4.14,-1.36" fill="#F4F8F0"></polygon><polygon points="7.26,0.55 7.52,1.24 8.26,1.28 7.69,1.74 7.88,2.45 7.26,2.05 6.64,2.45 6.83,1.74 6.26,1.28 7,1.24" fill="#F4F8F0"></polygon><polygon points="10.12,3.15 10.38,3.84 11.12,3.88 10.55,4.34 10.74,5.05 10.12,4.65 9.5,5.05 9.69,4.34 9.12,3.88 9.86,3.84" fill="#F4F8F0"></polygon><polygon points="12.98,5.75 13.24,6.44 13.98,6.48 13.41,6.94 13.6,7.65 12.98,7.25 12.36,7.65 12.55,6.94 11.98,6.48 12.72,6.44" fill="#F4F8F0"></polygon><polygon points="15.84,8.35 16.1,9.04 16.84,9.08 16.27,9.54 16.46,10.25 15.84,9.85 15.22,10.25 15.41,9.54 14.84,9.08 15.58,9.04" fill="#F4F8F0"></polygon><polygon points="18.7,10.95 18.96,11.64 19.7,11.68 19.13,12.14 19.32,12.85 18.7,12.45 18.08,12.85 18.27,12.14 17.7,11.68 18.44,11.64" fill="#F4F8F0"></polygon><polygon points="21.56,13.55 21.82,14.24 22.56,14.28 21.99,14.74 22.18,15.45 21.56,15.05 20.94,15.45 21.13,14.74 20.56,14.28 21.3,14.24" fill="#F4F8F0"></polygon><polygon points="24.42,16.15 24.68,16.84 25.42,16.88 24.85,17.34 25.04,18.05 24.42,17.65 23.8,18.05 23.99,17.34 23.42,16.88 24.16,16.84" fill="#F4F8F0"></polygon><polygon points="27.28,18.75 27.54,19.44 28.28,19.48 27.71,19.94 27.9,20.65 27.28,20.25 26.66,20.65 26.85,19.94 26.28,19.48 27.02,19.44" fill="#F4F8F0"></polygon></svg>