<svg xmlns="http://www.w3.org/2000/svg" viewBox="0 0 30 20" shape-rendering="crispEdges"><rect x="0" y="0" width="30" height="20" fill="#2E9E50"></rect><rect x="13.93" y="2" width="2.13" height="1" fill="#FFD93B"></rect><rect x="12.41" y="3" width="5.18" height="1" fill="#FFD93B"></rect><rect x="10.88" y="4" width="8.23" height="1" fill="#FFD93B"></rect><rect x="9.36" y="5" width="11.28" height="1" fill="#FFD93B"></rect><rect x="7.84" y="6" width="14.33" height="1" fill="#FFD93B"></rect><rect x="6.31" y="7" width="17.38" height="1" fill="#FFD93B"></rect><rect x="4.79" y="8" width="20.43" height="1" fill="#FFD93B"></rect><rect x="3.26" y="9" width="23.48" height="1" fill="#FFD93B"></rect><rect x="3.26" y="10" width="23.48" height="1" fill="#FFD93B"></rect><rect x="4.79" y="11" width="20.43" height="1" fill="#FFD93B"></rect><rect x="6.31" y="12" width="17.38" height="1" fill="#FFD93B"></rect><rect x="7.84" y="13" width="14.33" height="1" fill="#FFD93B"></rect><rect x="9.36" y="14" width="11.28" height="1" fill="#FFD93B"></rect><rect x="10.88" y="15" width="8.23" height="1" fill="#FFD93B"></rect><rect x="12.41" y="16" width="5.18" height="1" fill="#FFD93B"></rect><rect x="13.93" y="17" width="2.13" height="1" fill="#FFD93B"></rect><rect x="12.82" y="5" width="4.36" height="1" fill="#243C8F"></rect><rect x="11.43" y="6" width="7.14" height="1" fill="#243C8F"></rect><rect x="10.67" y="7" width="8.66" height="1" fill="#243C8F"></rect><rect x="10.23" y="8" width="9.54" height="1" fill="#243C8F"></rect><rect x="10.03" y="9" width="9.95" height="1" fill="#243C8F"></rect><rect x="10.03" y="10" width="9.95" height="1" fill="#243C8F"></rect><rect x="10.23" y="11" width="9.54" height="1" fill="#243C8F"></rect><rect x="10.67" y="12" width="8.66" height="1" fill="#243C8F"></rect><rect x="11.43" y="13" width="7.14" height="1" fill="#243C8F"></rect><rect x="12.82" y="14" width="4.36" height="1" fill="#243C8F"></rect><rect x="9.5" y="9" width="11" height="1.9" fill="#F4F8F0"></rect></svg>