<svg xmlns="http://www.w3.org/2000/svg" viewBox="0 0 30 20" shape-rendering="crispEdges"><rect x="0" y="0" width="30" height="20" fill="#DE2910"></rect><polygon points="5.5,2.2 6.06,3.73 7.69,3.79 6.4,4.79 6.85,6.36 5.5,5.45 4.15,6.36 4.6,4.79 3.31,3.79 4.94,3.73" fill="#FFDE00"></polygon><polygon points="10,1.05 10.25,1.66 10.9,1.71 10.4,2.13 10.56,2.77 10,2.42 9.44,2.77 9.6,2.13 9.1,1.71 9.75,1.66" fill="#FFDE00"></polygon><polygon points="11.6,3.05 11.85,3.66 12.5,3.71 12,4.13 12.16,4.77 11.6,4.42 11.04,4.77 11.2,4.13 10.7,3.71 11.35,3.66" fill="#FFDE00"></polygon><polygon points="11,5.65 11.25,6.26 11.9,6.31 11.4,6.73 11.56,7.37 11,7.02 10.44,7.37 10.6,6.73 10.1,6.31 10.75,6.26" fill="#FFDE00"></polygon><polygon points="9,7.05 9.25,7.66 9.9,7.71 9.4,8.13 9.56,8.77 9,8.42 8.44,8.77 8.6,8.13 8.1,7.71 8.75,7.66" fill="#FFDE00"></polygon></svg>