<svg xmlns="http://www.w3.org/2000/svg" viewBox="0 0 30 20" shape-rendering="crispEdges"><rect x="0" y="0" width="30" height="20" fill="#007FFF"></rect><rect x="26.25" y="0" width="6" height="1" fill="#F7D618"></rect><rect x="24.75" y="1" width="6" height="1" fill="#F7D618"></rect><rect x="23.25" y="2" width="6" height="1" fill="#F7D618"></rect><rect x="21.75" y="3" width="6" height="1" fill="#F7D618"></rect><rect x="20.25" y="4" width="6" height="1" fill="#F7D618"></rect><rect x="18.75" y="5" width="6" height="1" fill="#F7D618"></rect><rect x="17.25" y="6" width="6" height="1" fill="#F7D618"></rect><rect x="15.75" y="7" width="6" height="1" fill="#F7D618"></rect><rect x="14.25" y="8" width="6" height="1" fill="#F7D618"></rect><rect x="12.75" y="9" width="6" height="1" fill="#F7D618"></rect><rect x="11.25" y="10" width="6" height="1" fill="#F7D618"></rect><rect x="9.75" y="11" width="6" height="1" fill="#F7D618"></rect><rect x="8.25" y="12" width="6" height="1" fill="#F7D618"></rect><rect x="6.75" y="13" width="6" height="1" fill="#F7D618"></rect><rect x="5.25" y="14" width="6" height="1" fill="#F7D618"></rect><rect x="3.75" y="15" width="6" height="1" fill="#F7D618"></rect><rect x="2.25" y="16" width="6" height="1" fill="#F7D618"></rect><rect x="0.75" y="17" width="6" height="1" fill="#F7D618"></rect><rect x="-0.75" y="18" width="6" height="1" fill="#F7D618"></rect><rect x="-2.25" y="19" width="6" height="1" fill="#F7D618"></rect><rect x="27.45" y="0" width="3.6" height="1" fill="#CE1021"></rect><rect x="25.95" y="1" width="3.6" height="1" fill="#CE1021"></rect><rect x="24.45" y="2" width="3.6" height="1" fill="#CE1021"></rect><rect x="22.95" y="3" width="3.6" height="1" fill="#CE1021"></rect><rect x="21.45" y="4" width="3.6" height="1" fill="#CE1021"></rect><rect x="19.95" y="5" width="3.6" height="1" fill="#CE1021"></rect><rect x="18.45" y="6" width="3.6" height="1" fill="#CE1021"></rect><rect x="16.95" y="7" width="3.6" height="1" fill="#CE1021"></rect><rect x="15.45" y="8" width="3.6" height="1" fill="#CE1021"></rect><rect x="13.95" y="9" width="3.6" height="1" fill="#CE1021"></rect><rect x="12.45" y="10" width="3.6" height="1" fill="#CE1021"></rect><rect x="10.95" y="11" width="3.6" height="1" fill="#CE1021"></rect><rect x="9.45" y="12" width="3.6" height="1" fill="#CE1021"></rect><rect x="7.95" y="13" width="3.6" height="1" fill="#CE1021"></rect><rect x="6.45" y="14" width="3.6" height="1" fill="#CE1021"></rect><rect x="4.95" y="15" width="3.6" height="1" fill="#CE1021"></rect><rect x="3.45" y="16" width="3.6" height="1" fill="#CE1021"></rect><rect x="1.95" y="17" width="3.6" height="1" fill="#CE1021"></rect><rect x="0.45" y="18" width="3.6" height="1" fill="#CE1021"></rect><rect x="-1.05" y="19" width="3.6" height="1" fill="#CE1021"></rect><polygon points="5,2.5 5.47,3.85 6.9,3.88 5.76,4.75 6.18,6.12 5,5.3 3.82,6.12 4.24,4.75 3.1,3.88 4.53,3.85" fill="#F7D618"></polygon></svg>