<svg xmlns="http://www.w3.org/2000/svg" viewBox="0 0 30 20" shape-rendering="crispEdges"><rect x="0" y="0" width="30" height="20" fill="#003893"></rect><rect x="0" y="10" width="30" height="1.6" fill="#F4F8F0"></rect><rect x="0" y="11.6" width="30" height="1.6" fill="#CF2027"></rect><rect x="0" y="13.2" width="30" height="1.6" fill="#F4F8F0"></rect><polygon points="11.5,5.9 11.72,6.49 12.36,6.52 11.86,6.92 12.03,7.53 11.5,7.18 10.97,7.53 11.14,6.92 10.64,6.52 11.28,6.49" fill="#F7D518"></polygon><polygon points="14.44,6.85 14.66,7.45 15.29,7.48 14.8,7.87 14.97,8.48 14.44,8.13 13.91,8.48 14.08,7.87 13.58,7.48 14.22,7.45" fill="#F7D518"></polygon><polygon points="16.26,9.35 16.48,9.95 17.11,9.98 16.62,10.37 16.78,10.98 16.26,10.63 15.73,10.98 15.89,10.37 15.4,9.98 16.03,9.95" fill="#F7D518"></polygon><polygon points="16.26,12.45 16.48,13.04 17.11,13.07 16.62,13.46 16.78,14.07 16.26,13.73 15.73,14.07 15.89,13.46 15.4,13.07 16.03,13.04" fill="#F7D518"></polygon><polygon points="14.44,14.95 14.66,15.54 15.29,15.57 14.8,15.96 14.97,16.57 14.44,16.23 13.91,16.57 14.08,15.96 13.58,15.57 14.22,15.54" fill="#F7D518"></polygon><polygon points="11.5,15.9 11.72,16.49 12.36,16.52 11.86,16.92 12.03,17.53 11.5,17.18 10.97,17.53 11.14,16.92 10.64,16.52 11.28,16.49" fill="#F7D518"></polygon><polygon points="8.56,14.95 8.78,15.54 9.42,15.57 8.92,15.96 9.09,16.57 8.56,16.23 8.03,16.57 8.2,15.96 7.71,15.57 8.34,15.54" fill="#F7D518"></polygon><polygon points="6.74,12.45 6.97,13.04 7.6,13.07 7.11,13.46 7.27,14.07 6.74,13.73 6.22,14.07 6.38,13.46 5.89,13.07 6.52,13.04" fill="#F7D518"></polygon><polygon points="6.74,9.35 6.97,9.95 7.6,9.98 7.11,10.37 7.27,10.98 6.74,10.63 6.22,10.98 6.38,10.37 5.89,9.98 6.52,9.95" fill="#F7D518"></polygon><polygon points="8.56,6.85 8.78,7.45 9.42,7.48 8.92,7.87 9.09,8.48 8.56,8.13 8.03,8.48 8.2,7.87 7.71,7.48 8.34,7.45" fill="#F7D518"></polygon></svg>