<svg xmlns="http://www.w3.org/2000/svg" viewBox="0 0 30 20" shape-rendering="crispEdges"><rect x="0" y="0" width="30" height="4.06" fill="#0033A0"></rect><rect x="0" y="4" width="30" height="4.06" fill="#F4F8F0"></rect><rect x="0" y="8" width="30" height="4.06" fill="#0033A0"></rect><rect x="0" y="12" width="30" height="4.06" fill="#F4F8F0"></rect><rect x="0" y="16" width="30" height="4.06" fill="#0033A0"></rect><rect x="0" y="0" width="0.63" height="1" fill="#CB1515"></rect><rect x="0" y="1" width="1.88" height="1" fill="#CB1515"></rect><rect x="0" y="2" width="3.13" height="1" fill="#CB1515"></rect><rect x="0" y="3" width="4.38" height="1" fill="#CB1515"></rect><rect x="0" y="4" width="5.62" height="1" fill="#CB1515"></rect><rect x="0" y="5" width="6.88" height="1" fill="#CB1515"></rect><rect x="0" y="6" width="8.13" height="1" fill="#CB1515"></rect><rect x="0" y="7" width="9.38" height="1" fill="#CB1515"></rect><rect x="0" y="8" width="10.63" height="1" fill="#CB1515"></rect><rect x="0" y="9" width="11.88" height="1" fill="#CB1515"></rect><rect x="0" y="10" width="11.88" height="1" fill="#CB1515"></rect><rect x="0" y="11" width="10.63" height="1" fill="#CB1515"></rect><rect x="0" y="12" width="9.38" height="1" fill="#CB1515"></rect><rect x="0" y="13" width="8.13" height="1" fill="#CB1515"></rect><rect x="0" y="14" width="6.88" height="1" fill="#CB1515"></rect><rect x="0" y="15" width="5.62" height="1" fill="#CB1515"></rect><rect x="0" y="16" width="4.38" height="1" fill="#CB1515"></rect><rect x="0" y="17" width="3.13" height="1" fill="#CB1515"></rect><rect x="0" y="18" width="1.88" height="1" fill="#CB1515"></rect><rect x="0" y="19" width="0.63" height="1" fill="#CB1515"></rect><polygon points="4.2,7.9 4.7,9.31 6.2,9.35 5.01,10.26 5.43,11.7 4.2,10.85 2.97,11.7 3.39,10.26 2.2,9.35 3.7,9.31" fill="#F4F8F0"></polygon></svg>