<svg xmlns="http://www.w3.org/2000/svg" viewBox="0 0 30 20" shape-rendering="crispEdges"><rect x="0" y="0" width="30" height="10" fill="#F4F8F0"></rect><rect x="0" y="10" width="30" height="10" fill="#D7141A"></rect><rect x="0" y="0" width="0.65" height="1" fill="#11457E"></rect><rect x="0" y="1" width="1.95" height="1" fill="#11457E"></rect><rect x="0" y="2" width="3.25" height="1" fill="#11457E"></rect><rect x="0" y="3" width="4.55" height="1" fill="#11457E"></rect><rect x="0" y="4" width="5.85" height="1" fill="#11457E"></rect><rect x="0" y="5" width="7.15" height="1" fill="#11457E"></rect><rect x="0" y="6" width="8.45" height="1" fill="#11457E"></rect><rect x="0" y="7" width="9.75" height="1" fill="#11457E"></rect><rect x="0" y="8" width="11.05" height="1" fill="#11457E"></rect><rect x="0" y="9" width="12.35" height="1" fill="#11457E"></rect><rect x="0" y="10" width="12.35" height="1" fill="#11457E"></rect><rect x="0" y="11" width="11.05" height="1" fill="#11457E"></rect><rect x="0" y="12" width="9.75" height="1" fill="#11457E"></rect><rect x="0" y="13" width="8.45" height="1" fill="#11457E"></rect><rect x="0" y="14" width="7.15" height="1" fill="#11457E"></rect><rect x="0" y="15" width="5.85" height="1" fill="#11457E"></rect><rect x="0" y="16" width="4.55" height="1" fill="#11457E"></rect><rect x="0" y="17" width="3.25" height="1" fill="#11457E"></rect><rect x="0" y="18" width="1.95" height="1" fill="#11457E"></rect><rect x="0" y="19" width="0.65" height="1" fill="#11457E"></rect></svg>