<svg xmlns="http://www.w3.org/2000/svg" viewBox="0 0 30 20" shape-rendering="crispEdges"><rect x="0" y="0" width="30" height="6.67" fill="#0073CF"></rect><rect x="0" y="6.67" width="30" height="6.66" fill="#F4F8F0"></rect><rect x="0" y="13.33" width="30" height="6.67" fill="#0073CF"></rect><polygon points="15,9.05 15.24,9.68 15.9,9.71 15.38,10.12 15.56,10.77 15,10.4 14.44,10.77 14.62,10.12 14.1,9.71 14.76,9.68" fill="#0073CF"></polygon><polygon points="12.4,7.65 12.64,8.28 13.3,8.31 12.78,8.72 12.96,9.37 12.4,9 11.84,9.37 12.02,8.72 11.5,8.31 12.16,8.28" fill="#0073CF"></polygon><polygon points="17.6,7.65 17.84,8.28 18.5,8.31 17.98,8.72 18.16,9.37 17.6,9 17.04,9.37 17.22,8.72 16.7,8.31 17.36,8.28" fill="#0073CF"></polygon><polygon points="12.4,10.45 12.64,11.08 13.3,11.11 12.78,11.52 12.96,12.17 12.4,11.8 11.84,12.17 12.02,11.52 11.5,11.11 12.16,11.08" fill="#0073CF"></polygon><polygon points="17.6,10.45 17.84,11.08 18.5,11.11 17.98,11.52 18.16,12.17 17.6,11.8 17.04,12.17 17.22,11.52 16.7,11.11 17.36,11.08" fill="#0073CF"></polygon></svg>