<svg xmlns="http://www.w3.org/2000/svg" viewBox="0 0 30 20" shape-rendering="crispEdges"><rect x="0" y="0" width="30" height="20" fill="#2A2A2A"></rect><polygon points="0,0 30,0 15,10" fill="#009B3A"></polygon><polygon points="0,20 30,20 15,10" fill="#009B3A"></polygon><rect x="-0.85" y="0" width="3.2" height="1" fill="#FED100"></rect><rect x="27.65" y="0" width="3.2" height="1" fill="#FED100"></rect><rect x="0.65" y="1" width="3.2" height="1" fill="#FED100"></rect><rect x="26.15" y="1" width="3.2" height="1" fill="#FED100"></rect><rect x="2.15" y="2" width="3.2" height="1" fill="#FED100"></rect><rect x="24.65" y="2" width="3.2" height="1" fill="#FED100"></rect><rect x="3.65" y="3" width="3.2" height="1" fill="#FED100"></rect><rect x="23.15" y="3" width="3.2" height="1" fill="#FED100"></rect><rect x="5.15" y="4" width="3.2" height="1" fill="#FED100"></rect><rect x="21.65" y="4" width="3.2" height="1" fill="#FED100"></rect><rect x="6.65" y="5" width="3.2" height="1" fill="#FED100"></rect><rect x="20.15" y="5" width="3.2" height="1" fill="#FED100"></rect><rect x="8.15" y="6" width="3.2" height="1" fill="#FED100"></rect><rect x="18.65" y="6" width="3.2" height="1" fill="#FED100"></rect><rect x="9.65" y="7" width="3.2" height="1" fill="#FED100"></rect><rect x="17.15" y="7" width="3.2" height="1" fill="#FED100"></rect><rect x="11.15" y="8" width="3.2" height="1" fill="#FED100"></rect><rect x="15.65" y="8" width="3.2" height="1" fill="#FED100"></rect><rect x="12.65" y="9" width="3.2" height="1" fill="#FED100"></rect><rect x="14.15" y="9" width="3.2" height="1" fill="#FED100"></rect><rect x="14.15" y="10" width="3.2" height="1" fill="#FED100"></rect><rect x="12.65" y="10" width="3.2" height="1" fill="#FED100"></rect><rect x="15.65" y="11" width="3.2" height="1" fill="#FED100"></rect><rect x="11.15" y="11" width="3.2" height="1" fill="#FED100"></rect><rect x="17.15" y="12" width="3.2" height="1" fill="#FED100"></rect><rect x="9.65" y="12" width="3.2" height="1" fill="#FED100"></rect><rect x="18.65" y="13" width="3.2" height="1" fill="#FED100"></rect><rect x="8.15" y="13" width="3.2" height="1" fill="#FED100"></rect><rect x="20.15" y="14" width="3.2" height="1" fill="#FED100"></rect><rect x="6.65" y="14" width="3.2" height="1" fill="#FED100"></rect><rect x="21.65" y="15" width="3.2" height="1" fill="#FED100"></rect><rect x="5.15" y="15" width="3.2" height="1" fill="#FED100"></rect><rect x="23.15" y="16" width="3.2" height="1" fill="#FED100"></rect><rect x="3.65" y="16" width="3.2" height="1" fill="#FED100"></rect><rect x="24.65" y="17" width="3.2" height="1" fill="#FED100"></rect><rect x="2.15" y="17" width="3.2" height="1" fill="#FED100"></rect><rect x="26.15" y="18" width="3.2" height="1" fill="#FED100"></rect><rect x="0.65" y="18" width="3.2" height="1" fill="#FED100"></rect><rect x="27.65" y="19" width="3.2" height="1" fill="#FED100"></rect><rect x="-0.85" y="19" width="3.2" height="1" fill="#FED100"></rect></svg>