<svg xmlns="http://www.w3.org/2000/svg" viewBox="0 0 30 20" shape-rendering="crispEdges"><rect x="0" y="0" width="30" height="6.67" fill="#2A2A2A"></rect><rect x="0" y="6.67" width="30" height="6.66" fill="#F4F8F0"></rect><rect x="0" y="13.33" width="30" height="6.67" fill="#007A3D"></rect><rect x="0" y="0" width="0.6" height="1" fill="#CE1126"></rect><rect x="0" y="1" width="1.8" height="1" fill="#CE1126"></rect><rect x="0" y="2" width="3" height="1" fill="#CE1126"></rect><rect x="0" y="3" width="4.2" height="1" fill="#CE1126"></rect><rect x="0" y="4" width="5.4" height="1" fill="#CE1126"></rect><rect x="0" y="5" width="6.6" height="1" fill="#CE1126"></rect><rect x="0" y="6" width="7.8" height="1" fill="#CE1126"></rect><rect x="0" y="7" width="9" height="1" fill="#CE1126"></rect><rect x="0" y="8" width="10.2" height="1" fill="#CE1126"></rect><rect x="0" y="9" width="11.4" height="1" fill="#CE1126"></rect><rect x="0" y="10" width="11.4" height="1" fill="#CE1126"></rect><rect x="0" y="11" width="10.2" height="1" fill="#CE1126"></rect><rect x="0" y="12" width="9" height="1" fill="#CE1126"></rect><rect x="0" y="13" width="7.8" height="1" fill="#CE1126"></rect><rect x="0" y="14" width="6.6" height="1" fill="#CE1126"></rect><rect x="0" y="15" width="5.4" height="1" fill="#CE1126"></rect><rect x="0" y="16" width="4.2" height="1" fill="#CE1126"></rect><rect x="0" y="17" width="3" height="1" fill="#CE1126"></rect><rect x="0" y="18" width="1.8" height="1" fill="#CE1126"></rect><rect x="0" y="19" width="0.6" height="1" fill="#CE1126"></rect><polygon points="5,8.3 5.31,9.35 6.33,8.94 5.7,9.84 6.66,10.38 5.56,10.45 5.74,11.53 5,10.72 4.26,11.53 4.44,10.45 3.34,10.38 4.3,9.84 3.67,8.94 4.69,9.35" fill="#F4F8F0"></polygon></svg>