<svg xmlns="http://www.w3.org/2000/svg" viewBox="0 0 30 20" shape-rendering="crispEdges"><rect x="0" y="0" width="30" height="20" fill="#F4F8F0"></rect><rect x="13.17" y="7" width="3.67" height="1" fill="#CD2E3A"></rect><rect x="12.29" y="8" width="5.43" height="1" fill="#CD2E3A"></rect><rect x="11.94" y="9" width="6.12" height="1" fill="#CD2E3A"></rect><rect x="11.94" y="10" width="6.12" height="1" fill="#CD2E3A"></rect><rect x="12.29" y="11" width="5.43" height="1" fill="#CD2E3A"></rect><rect x="13.17" y="12" width="3.67" height="1" fill="#CD2E3A"></rect><rect x="11.94" y="10" width="6.12" height="1" fill="#0047A0"></rect><rect x="12.29" y="11" width="5.43" height="1" fill="#0047A0"></rect><rect x="13.17" y="12" width="3.67" height="1" fill="#0047A0"></rect><rect x="4.4" y="4.1" width="3.2" height="0.5" fill="#2A2A2A"></rect><rect x="4.4" y="4.9" width="3.2" height="0.5" fill="#2A2A2A"></rect><rect x="4.4" y="5.7" width="3.2" height="0.5" fill="#2A2A2A"></rect><rect x="22.4" y="4.1" width="3.2" height="0.5" fill="#2A2A2A"></rect><rect x="22.4" y="4.9" width="3.2" height="0.5" fill="#2A2A2A"></rect><rect x="22.4" y="5.7" width="3.2" height="0.5" fill="#2A2A2A"></rect><rect x="4.4" y="14.1" width="3.2" height="0.5" fill="#2A2A2A"></rect><rect x="4.4" y="14.9" width="3.2" height="0.5" fill="#2A2A2A"></rect><rect x="4.4" y="15.7" width="3.2" height="0.5" fill="#2A2A2A"></rect><rect x="22.4" y="14.1" width="3.2" height="0.5" fill="#2A2A2A"></rect><rect x="22.4" y="14.9" width="3.2" height="0.5" fill="#2A2A2A"></rect><rect x="22.4" y="15.7" width="3.2" height="0.5" fill="#2A2A2A"></rect></svg>