<svg xmlns="http://www.w3.org/2000/svg" viewBox="0 0 30 20" shape-rendering="crispEdges"><rect x="0" y="0" width="30" height="6.67" fill="#007A3D"></rect><rect x="0" y="6.67" width="30" height="6.66" fill="#F4F8F0"></rect><rect x="0" y="13.33" width="30" height="6.67" fill="#CE1126"></rect><rect x="0" y="0" width="0.4" height="1" fill="#2A2A2A"></rect><rect x="0" y="1" width="1.2" height="1" fill="#2A2A2A"></rect><rect x="0" y="2" width="2" height="1" fill="#2A2A2A"></rect><rect x="0" y="3" width="2.8" height="1" fill="#2A2A2A"></rect><rect x="0" y="4" width="3.6" height="1" fill="#2A2A2A"></rect><rect x="0" y="5" width="4.4" height="1" fill="#2A2A2A"></rect><rect x="0" y="6" width="5.2" height="1" fill="#2A2A2A"></rect><rect x="0" y="7" width="6" height="1" fill="#2A2A2A"></rect><rect x="0" y="8" width="6.8" height="1" fill="#2A2A2A"></rect><rect x="0" y="9" width="7.6" height="1" fill="#2A2A2A"></rect><rect x="0" y="10" width="7.6" height="1" fill="#2A2A2A"></rect><rect x="0" y="11" width="6.8" height="1" fill="#2A2A2A"></rect><rect x="0" y="12" width="6" height="1" fill="#2A2A2A"></rect><rect x="0" y="13" width="5.2" height="1" fill="#2A2A2A"></rect><rect x="0" y="14" width="4.4" height="1" fill="#2A2A2A"></rect><rect x="0" y="15" width="3.6" height="1" fill="#2A2A2A"></rect><rect x="0" y="16" width="2.8" height="1" fill="#2A2A2A"></rect><rect x="0" y="17" width="2" height="1" fill="#2A2A2A"></rect><rect x="0" y="18" width="1.2" height="1" fill="#2A2A2A"></rect><rect x="0" y="19" width="0.4" height="1" fill="#2A2A2A"></rect></svg>