<svg xmlns="http://www.w3.org/2000/svg" viewBox="0 0 30 20" shape-rendering="crispEdges"><rect x="0" y="0" width="30" height="20" fill="#00247D"></rect><rect x="-0.9" y="0" width="1.8" height="1" fill="#F4F8F0"></rect><rect x="11.1" y="0" width="1.8" height="1" fill="#F4F8F0"></rect><rect x="0.3" y="1" width="1.8" height="1" fill="#F4F8F0"></rect><rect x="9.9" y="1" width="1.8" height="1" fill="#F4F8F0"></rect><rect x="1.5" y="2" width="1.8" height="1" fill="#F4F8F0"></rect><rect x="8.7" y="2" width="1.8" height="1" fill="#F4F8F0"></rect><rect x="2.7" y="3" width="1.8" height="1" fill="#F4F8F0"></rect><rect x="7.5" y="3" width="1.8" height="1" fill="#F4F8F0"></rect><rect x="3.9" y="4" width="1.8" height="1" fill="#F4F8F0"></rect><rect x="6.3" y="4" width="1.8" height="1" fill="#F4F8F0"></rect><rect x="5.1" y="5" width="1.8" height="1" fill="#F4F8F0"></rect><rect x="5.1" y="5" width="1.8" height="1" fill="#F4F8F0"></rect><rect x="6.3" y="6" width="1.8" height="1" fill="#F4F8F0"></rect><rect x="3.9" y="6" width="1.8" height="1" fill="#F4F8F0"></rect><rect x="7.5" y="7" width="1.8" height="1" fill="#F4F8F0"></rect><rect x="2.7" y="7" width="1.8" height="1" fill="#F4F8F0"></rect><rect x="8.7" y="8" width="1.8" height="1" fill="#F4F8F0"></rect><rect x="1.5" y="8" width="1.8" height="1" fill="#F4F8F0"></rect><rect x="9.9" y="9" width="1.8" height="1" fill="#F4F8F0"></rect><rect x="0.3" y="9" width="1.8" height="1" fill="#F4F8F0"></rect><rect x="4.8" y="0" width="2.4" height="10" fill="#F4F8F0"></rect><rect x="0" y="3.8" width="12" height="2.4" fill="#F4F8F0"></rect><rect x="5.4" y="0" width="1.2" height="10" fill="#CF142B"></rect><rect x="0" y="4.4" width="12" height="1.2" fill="#CF142B"></rect><polygon points="22.5,3.55 22.86,4.51 23.88,4.55 23.08,5.19 23.35,6.17 22.5,5.61 21.65,6.17 21.92,5.19 21.12,4.55 22.14,4.51" fill="#F4F8F0"></polygon><polygon points="22.5,4 22.75,4.66 23.45,4.69 22.9,5.13 23.09,5.81 22.5,5.42 21.91,5.81 22.1,5.13 21.55,4.69 22.25,4.66" fill="#CC142B"></polygon><polygon points="26.5,8.35 26.91,9.44 28.07,9.49 27.16,10.21 27.47,11.33 26.5,10.69 25.53,11.33 25.84,10.21 24.93,9.49 26.09,9.44" fill="#F4F8F0"></polygon><polygon points="26.5,8.8 26.8,9.59 27.64,9.63 26.98,10.16 27.21,10.97 26.5,10.5 25.79,10.97 26.02,10.16 25.36,9.63 26.2,9.59" fill="#CC142B"></polygon><polygon points="21.5,12.15 21.83,13.04 22.78,13.08 22.04,13.68 22.29,14.59 21.5,14.07 20.71,14.59 20.96,13.68 20.22,13.08 21.17,13.04" fill="#F4F8F0"></polygon><polygon points="21.5,12.6 21.72,13.19 22.36,13.22 21.86,13.62 22.03,14.23 21.5,13.88 20.97,14.23 21.14,13.62 20.64,13.22 21.28,13.19" fill="#CC142B"></polygon><polygon points="24.5,15.45 24.88,16.47 25.97,16.52 25.12,17.2 25.41,18.25 24.5,17.65 23.59,18.25 23.88,17.2 23.03,16.52 24.12,16.47" fill="#F4F8F0"></polygon><polygon points="24.5,15.9 24.77,16.63 25.55,16.66 24.94,17.14 25.15,17.89 24.5,17.46 23.85,17.89 24.06,17.14 23.45,16.66 24.23,16.63" fill="#CC142B"></polygon></svg>