<svg xmlns="http://www.w3.org/2000/svg" viewBox="0 0 30 20" shape-rendering="crispEdges"><rect x="0" y="0" width="30" height="3.4" fill="#024FA2"></rect><rect x="0" y="3.4" width="30" height="1.6" fill="#F4F8F0"></rect><rect x="0" y="5" width="30" height="10" fill="#ED1C27"></rect><rect x="0" y="15" width="30" height="1.6" fill="#F4F8F0"></rect><rect x="0" y="16.6" width="30" height="3.4" fill="#024FA2"></rect><rect x="7.34" y="7" width="3.32" height="1" fill="#F4F8F0"></rect><rect x="6.4" y="8" width="5.2" height="1" fill="#F4F8F0"></rect><rect x="6.04" y="9" width="5.92" height="1" fill="#F4F8F0"></rect><rect x="6.04" y="10" width="5.92" height="1" fill="#F4F8F0"></rect><rect x="6.4" y="11" width="5.2" height="1" fill="#F4F8F0"></rect><rect x="7.34" y="12" width="3.32" height="1" fill="#F4F8F0"></rect><polygon points="9,8.1 9.44,9.39 10.81,9.41 9.71,10.23 10.12,11.54 9,10.75 7.88,11.54 8.29,10.23 7.19,9.41 8.56,9.39" fill="#ED1C27"></polygon></svg>