<svg xmlns="http://www.w3.org/2000/svg" viewBox="0 0 30 20" shape-rendering="crispEdges"><rect x="0" y="0" width="30" height="20" fill="#8A1538"></rect><rect x="0" y="0" width="11" height="20" fill="#F4F8F0"></rect><polygon points="11,0 13,1.11 11,2.22" fill="#F4F8F0"></polygon><polygon points="11,2.22 13,3.33 11,4.44" fill="#F4F8F0"></polygon><polygon points="11,4.44 13,5.56 11,6.67" fill="#F4F8F0"></polygon><polygon points="11,6.67 13,7.78 11,8.89" fill="#F4F8F0"></polygon><polygon points="11,8.89 13,10 11,11.11" fill="#F4F8F0"></polygon><polygon points="11,11.11 13,12.22 11,13.33" fill="#F4F8F0"></polygon><polygon points="11,13.33 13,14.44 11,15.56" fill="#F4F8F0"></polygon><polygon points="11,15.56 13,16.67 11,17.78" fill="#F4F8F0"></polygon><polygon points="11,17.78 13,18.89 11,20" fill="#F4F8F0"></polygon></svg>