<svg xmlns="http://www.w3.org/2000/svg" viewBox="0 0 30 20" shape-rendering="crispEdges"><rect x="0" y="0" width="30" height="10" fill="#E03C31"></rect><rect x="0" y="10" width="30" height="10" fill="#001489"></rect><rect x="0" y="6.2" width="30" height="7.6" fill="#F4F8F0"></rect><rect x="0" y="7.4" width="30" height="5.2" fill="#007A4D"></rect><rect x="0" y="0" width="0.65" height="1" fill="#F4F8F0"></rect><rect x="0" y="1" width="1.95" height="1" fill="#F4F8F0"></rect><rect x="0" y="2" width="3.25" height="1" fill="#F4F8F0"></rect><rect x="0" y="3" width="4.55" height="1" fill="#F4F8F0"></rect><rect x="0" y="4" width="5.85" height="1" fill="#F4F8F0"></rect><rect x="0" y="5" width="7.15" height="1" fill="#F4F8F0"></rect><rect x="0" y="6" width="8.45" height="1" fill="#F4F8F0"></rect><rect x="0" y="7" width="9.75" height="1" fill="#F4F8F0"></rect><rect x="0" y="8" width="11.05" height="1" fill="#F4F8F0"></rect><rect x="0" y="9" width="12.35" height="1" fill="#F4F8F0"></rect><rect x="0" y="10" width="12.35" height="1" fill="#F4F8F0"></rect><rect x="0" y="11" width="11.05" height="1" fill="#F4F8F0"></rect><rect x="0" y="12" width="9.75" height="1" fill="#F4F8F0"></rect><rect x="0" y="13" width="8.45" height="1" fill="#F4F8F0"></rect><rect x="0" y="14" width="7.15" height="1" fill="#F4F8F0"></rect><rect x="0" y="15" width="5.85" height="1" fill="#F4F8F0"></rect><rect x="0" y="16" width="4.55" height="1" fill="#F4F8F0"></rect><rect x="0" y="17" width="3.25" height="1" fill="#F4F8F0"></rect><rect x="0" y="18" width="1.95" height="1" fill="#F4F8F0"></rect><rect x="0" y="19" width="0.65" height="1" fill="#F4F8F0"></rect><rect x="0" y="0" width="0.53" height="1" fill="#FFB81C"></rect><rect x="0" y="1" width="1.58" height="1" fill="#FFB81C"></rect><rect x="0" y="2" width="2.63" height="1" fill="#FFB81C"></rect><rect x="0" y="3" width="3.67" height="1" fill="#FFB81C"></rect><rect x="0" y="4" width="4.72" height="1" fill="#FFB81C"></rect><rect x="0" y="5" width="5.78" height="1" fill="#FFB81C"></rect><rect x="0" y="6" width="6.83" height="1" fill="#FFB81C"></rect><rect x="0" y="7" width="7.88" height="1" fill="#FFB81C"></rect><rect x="0" y="8" width="8.92" height="1" fill="#FFB81C"></rect><rect x="0" y="9" width="9.97" height="1" fill="#FFB81C"></rect><rect x="0" y="10" width="9.97" height="1" fill="#FFB81C"></rect><rect x="0" y="11" width="8.92" height="1" fill="#FFB81C"></rect><rect x="0" y="12" width="7.88" height="1" fill="#FFB81C"></rect><rect x="0" y="13" width="6.83" height="1" fill="#FFB81C"></rect><rect x="0" y="14" width="5.78" height="1" fill="#FFB81C"></rect><rect x="0" y="15" width="4.72" height="1" fill="#FFB81C"></rect><rect x="0" y="16" width="3.67" height="1" fill="#FFB81C"></rect><rect x="0" y="17" width="2.63" height="1" fill="#FFB81C"></rect><rect x="0" y="18" width="1.58" height="1" fill="#FFB81C"></rect><rect x="0" y="19" width="0.53" height="1" fill="#FFB81C"></rect><rect x="0" y="0" width="0.4" height="1" fill="#2A2A2A"></rect><rect x="0" y="1" width="1.2" height="1" fill="#2A2A2A"></rect><rect x="0" y="2" width="2" height="1" fill="#2A2A2A"></rect><rect x="0" y="3" width="2.8" height="1" fill="#2A2A2A"></rect><rect x="0" y="4" width="3.6" height="1" fill="#2A2A2A"></rect><rect x="0" y="5" width="4.4" height="1" fill="#2A2A2A"></rect><rect x="0" y="6" width="5.2" height="1" fill="#2A2A2A"></rect><rect x="0" y="7" width="6" height="1" fill="#2A2A2A"></rect><rect x="0" y="8" width="6.8" height="1" fill="#2A2A2A"></rect><rect x="0" y="9" width="7.6" height="1" fill="#2A2A2A"></rect><rect x="0" y="10" width="7.6" height="1" fill="#2A2A2A"></rect><rect x="0" y="11" width="6.8" height="1" fill="#2A2A2A"></rect><rect x="0" y="12" width="6" height="1" fill="#2A2A2A"></rect><rect x="0" y="13" width="5.2" height="1" fill="#2A2A2A"></rect><rect x="0" y="14" width="4.4" height="1" fill="#2A2A2A"></rect><rect x="0" y="15" width="3.6" height="1" fill="#2A2A2A"></rect><rect x="0" y="16" width="2.8" height="1" fill="#2A2A2A"></rect><rect x="0" y="17" width="2" height="1" fill="#2A2A2A"></rect><rect x="0" y="18" width="1.2" height="1" fill="#2A2A2A"></rect><rect x="0" y="19" width="0.4" height="1" fill="#2A2A2A"></rect></svg>