<svg xmlns="http://www.w3.org/2000/svg" viewBox="0 0 30 20" shape-rendering="crispEdges"><rect x="0" y="0" width="30" height="20" fill="#0065BF"></rect><rect x="-0.95" y="0" width="3.4" height="1" fill="#F4F8F0"></rect><rect x="27.55" y="0" width="3.4" height="1" fill="#F4F8F0"></rect><rect x="0.55" y="1" width="3.4" height="1" fill="#F4F8F0"></rect><rect x="26.05" y="1" width="3.4" height="1" fill="#F4F8F0"></rect><rect x="2.05" y="2" width="3.4" height="1" fill="#F4F8F0"></rect><rect x="24.55" y="2" width="3.4" height="1" fill="#F4F8F0"></rect><rect x="3.55" y="3" width="3.4" height="1" fill="#F4F8F0"></rect><rect x="23.05" y="3" width="3.4" height="1" fill="#F4F8F0"></rect><rect x="5.05" y="4" width="3.4" height="1" fill="#F4F8F0"></rect><rect x="21.55" y="4" width="3.4" height="1" fill="#F4F8F0"></rect><rect x="6.55" y="5" width="3.4" height="1" fill="#F4F8F0"></rect><rect x="20.05" y="5" width="3.4" height="1" fill="#F4F8F0"></rect><rect x="8.05" y="6" width="3.4" height="1" fill="#F4F8F0"></rect><rect x="18.55" y="6" width="3.4" height="1" fill="#F4F8F0"></rect><rect x="9.55" y="7" width="3.4" height="1" fill="#F4F8F0"></rect><rect x="17.05" y="7" width="3.4" height="1" fill="#F4F8F0"></rect><rect x="11.05" y="8" width="3.4" height="1" fill="#F4F8F0"></rect><rect x="15.55" y="8" width="3.4" height="1" fill="#F4F8F0"></rect><rect x="12.55" y="9" width="3.4" height="1" fill="#F4F8F0"></rect><rect x="14.05" y="9" width="3.4" height="1" fill="#F4F8F0"></rect><rect x="14.05" y="10" width="3.4" height="1" fill="#F4F8F0"></rect><rect x="12.55" y="10" width="3.4" height="1" fill="#F4F8F0"></rect><rect x="15.55" y="11" width="3.4" height="1" fill="#F4F8F0"></rect><rect x="11.05" y="11" width="3.4" height="1" fill="#F4F8F0"></rect><rect x="17.05" y="12" width="3.4" height="1" fill="#F4F8F0"></rect><rect x="9.55" y="12" width="3.4" height="1" fill="#F4F8F0"></rect><rect x="18.55" y="13" width="3.4" height="1" fill="#F4F8F0"></rect><rect x="8.05" y="13" width="3.4" height="1" fill="#F4F8F0"></rect><rect x="20.05" y="14" width="3.4" height="1" fill="#F4F8F0"></rect><rect x="6.55" y="14" width="3.4" height="1" fill="#F4F8F0"></rect><rect x="21.55" y="15" width="3.4" height="1" fill="#F4F8F0"></rect><rect x="5.05" y="15" width="3.4" height="1" fill="#F4F8F0"></rect><rect x="23.05" y="16" width="3.4" height="1" fill="#F4F8F0"></rect><rect x="3.55" y="16" width="3.4" height="1" fill="#F4F8F0"></rect><rect x="24.55" y="17" width="3.4" height="1" fill="#F4F8F0"></rect><rect x="2.05" y="17" width="3.4" height="1" fill="#F4F8F0"></rect><rect x="26.05" y="18" width="3.4" height="1" fill="#F4F8F0"></rect><rect x="0.55" y="18" width="3.4" height="1" fill="#F4F8F0"></rect><rect x="27.55" y="19" width="3.4" height="1" fill="#F4F8F0"></rect><rect x="-0.95" y="19" width="3.4" height="1" fill="#F4F8F0"></rect></svg>