<svg xmlns="http://www.w3.org/2000/svg" viewBox="0 0 30 20" shape-rendering="crispEdges"><rect x="0" y="0" width="30" height="20" fill="#DA1A35"></rect><rect x="-2.45" y="0" width="6.4" height="1" fill="#F4F8F0"></rect><rect x="-0.95" y="1" width="6.4" height="1" fill="#F4F8F0"></rect><rect x="0.55" y="2" width="6.4" height="1" fill="#F4F8F0"></rect><rect x="2.05" y="3" width="6.4" height="1" fill="#F4F8F0"></rect><rect x="3.55" y="4" width="6.4" height="1" fill="#F4F8F0"></rect><rect x="5.05" y="5" width="6.4" height="1" fill="#F4F8F0"></rect><rect x="6.55" y="6" width="6.4" height="1" fill="#F4F8F0"></rect><rect x="8.05" y="7" width="6.4" height="1" fill="#F4F8F0"></rect><rect x="9.55" y="8" width="6.4" height="1" fill="#F4F8F0"></rect><rect x="11.05" y="9" width="6.4" height="1" fill="#F4F8F0"></rect><rect x="12.55" y="10" width="6.4" height="1" fill="#F4F8F0"></rect><rect x="14.05" y="11" width="6.4" height="1" fill="#F4F8F0"></rect><rect x="15.55" y="12" width="6.4" height="1" fill="#F4F8F0"></rect><rect x="17.05" y="13" width="6.4" height="1" fill="#F4F8F0"></rect><rect x="18.55" y="14" width="6.4" height="1" fill="#F4F8F0"></rect><rect x="20.05" y="15" width="6.4" height="1" fill="#F4F8F0"></rect><rect x="21.55" y="16" width="6.4" height="1" fill="#F4F8F0"></rect><rect x="23.05" y="17" width="6.4" height="1" fill="#F4F8F0"></rect><rect x="24.55" y="18" width="6.4" height="1" fill="#F4F8F0"></rect><rect x="26.05" y="19" width="6.4" height="1" fill="#F4F8F0"></rect><rect x="-1.25" y="0" width="4" height="1" fill="#2A2A2A"></rect><rect x="0.25" y="1" width="4" height="1" fill="#2A2A2A"></rect><rect x="1.75" y="2" width="4" height="1" fill="#2A2A2A"></rect><rect x="3.25" y="3" width="4" height="1" fill="#2A2A2A"></rect><rect x="4.75" y="4" width="4" height="1" fill="#2A2A2A"></rect><rect x="6.25" y="5" width="4" height="1" fill="#2A2A2A"></rect><rect x="7.75" y="6" width="4" height="1" fill="#2A2A2A"></rect><rect x="9.25" y="7" width="4" height="1" fill="#2A2A2A"></rect><rect x="10.75" y="8" width="4" height="1" fill="#2A2A2A"></rect><rect x="12.25" y="9" width="4" height="1" fill="#2A2A2A"></rect><rect x="13.75" y="10" width="4" height="1" fill="#2A2A2A"></rect><rect x="15.25" y="11" width="4" height="1" fill="#2A2A2A"></rect><rect x="16.75" y="12" width="4" height="1" fill="#2A2A2A"></rect><rect x="18.25" y="13" width="4" height="1" fill="#2A2A2A"></rect><rect x="19.75" y="14" width="4" height="1" fill="#2A2A2A"></rect><rect x="21.25" y="15" width="4" height="1" fill="#2A2A2A"></rect><rect x="22.75" y="16" width="4" height="1" fill="#2A2A2A"></rect><rect x="24.25" y="17" width="4" height="1" fill="#2A2A2A"></rect><rect x="25.75" y="18" width="4" height="1" fill="#2A2A2A"></rect><rect x="27.25" y="19" width="4" height="1" fill="#2A2A2A"></rect></svg>