<svg xmlns="http://www.w3.org/2000/svg" viewBox="0 0 30 20" shape-rendering="crispEdges"><rect x="0" y="0" width="30" height="20" fill="#E70013"></rect><rect x="12.85" y="7" width="4.31" height="1" fill="#F4F8F0"></rect><rect x="12.06" y="8" width="5.88" height="1" fill="#F4F8F0"></rect><rect x="11.74" y="9" width="6.52" height="1" fill="#F4F8F0"></rect><rect x="11.74" y="10" width="6.52" height="1" fill="#F4F8F0"></rect><rect x="12.06" y="11" width="5.88" height="1" fill="#F4F8F0"></rect><rect x="12.85" y="12" width="4.31" height="1" fill="#F4F8F0"></rect><rect x="13.18" y="8" width="2.65" height="1" fill="#E70013"></rect><rect x="12.56" y="9" width="3.87" height="1" fill="#E70013"></rect><rect x="12.56" y="10" width="3.87" height="1" fill="#E70013"></rect><rect x="13.18" y="11" width="2.65" height="1" fill="#E70013"></rect><rect x="15.01" y="8" width="0.78" height="1" fill="#F4F8F0"></rect><rect x="13.93" y="9" width="2.93" height="1" fill="#F4F8F0"></rect><rect x="13.93" y="10" width="2.93" height="1" fill="#F4F8F0"></rect><rect x="15.01" y="11" width="0.78" height="1" fill="#F4F8F0"></rect><polygon points="16.1,8.75 16.39,9.6 17.29,9.61 16.58,10.15 16.83,11.01 16.1,10.5 15.37,11.01 15.62,10.15 14.91,9.61 15.81,9.6" fill="#E70013"></polygon></svg>