<svg xmlns="http://www.w3.org/2000/svg" viewBox="0 0 30 20" shape-rendering="crispEdges"><rect x="0" y="0" width="30" height="20" fill="#E30A17"></rect><rect x="9.2" y="7" width="4.61" height="1" fill="#F4F8F0"></rect><rect x="8.45" y="8" width="6.1" height="1" fill="#F4F8F0"></rect><rect x="8.14" y="9" width="6.73" height="1" fill="#F4F8F0"></rect><rect x="8.14" y="10" width="6.73" height="1" fill="#F4F8F0"></rect><rect x="8.45" y="11" width="6.1" height="1" fill="#F4F8F0"></rect><rect x="9.2" y="12" width="4.61" height="1" fill="#F4F8F0"></rect><rect x="11.64" y="7" width="2.52" height="1" fill="#E30A17"></rect><rect x="10.54" y="8" width="4.73" height="1" fill="#E30A17"></rect><rect x="10.15" y="9" width="5.51" height="1" fill="#E30A17"></rect><rect x="10.15" y="10" width="5.51" height="1" fill="#E30A17"></rect><rect x="10.54" y="11" width="4.73" height="1" fill="#E30A17"></rect><rect x="11.64" y="12" width="2.52" height="1" fill="#E30A17"></rect><polygon points="15.8,8.5 16.15,9.51 17.23,9.54 16.37,10.19 16.68,11.21 15.8,10.6 14.92,11.21 15.23,10.19 14.37,9.54 15.45,9.51" fill="#F4F8F0"></polygon></svg>