<svg xmlns="http://www.w3.org/2000/svg" viewBox="0 0 30 20" shape-rendering="crispEdges"><rect x="0" y="0" width="30" height="20" fill="#F4F8F0"></rect><rect x="11" y="0" width="19" height="2.22" fill="#2C3F9E"></rect><rect x="11" y="4.44" width="19" height="2.22" fill="#2C3F9E"></rect><rect x="11" y="8.89" width="19" height="2.22" fill="#2C3F9E"></rect><rect x="0" y="13.33" width="30" height="2.22" fill="#2C3F9E"></rect><rect x="0" y="17.78" width="30" height="2.22" fill="#2C3F9E"></rect><rect x="0" y="0" width="11" height="11" fill="#F4F8F0"></rect><rect x="4.38" y="4" width="2.24" height="1" fill="#F4C430"></rect><rect x="4" y="5" width="3" height="1" fill="#F4C430"></rect><rect x="4.38" y="6" width="2.24" height="1" fill="#F4C430"></rect><rect x="5.05" y="1.9" width="0.9" height="1.4" fill="#F4C430"></rect><rect x="5.05" y="7.7" width="0.9" height="1.4" fill="#F4C430"></rect><rect x="1.9" y="5.05" width="1.4" height="0.9" fill="#F4C430"></rect><rect x="7.7" y="5.05" width="1.4" height="0.9" fill="#F4C430"></rect><rect x="6.8" y="2.9" width="1.1" height="1.1" fill="#F4C430"></rect><rect x="3.1" y="2.9" width="1.1" height="1.1" fill="#F4C430"></rect><rect x="6.8" y="7" width="1.1" height="1.1" fill="#F4C430"></rect><rect x="3.1" y="7" width="1.1" height="1.1" fill="#F4C430"></rect></svg>