<svg xmlns="http://www.w3.org/2000/svg" viewBox="0 0 30 20" shape-rendering="crispEdges"><rect x="0" y="0" width="30" height="1.6" fill="#B22234"></rect><rect x="0" y="1.54" width="30" height="1.6" fill="#F4F8F0"></rect><rect x="0" y="3.08" width="30" height="1.6" fill="#B22234"></rect><rect x="0" y="4.62" width="30" height="1.6" fill="#F4F8F0"></rect><rect x="0" y="6.15" width="30" height="1.6" fill="#B22234"></rect><rect x="0" y="7.69" width="30" height="1.6" fill="#F4F8F0"></rect><rect x="0" y="9.23" width="30" height="1.6" fill="#B22234"></rect><rect x="0" y="10.77" width="30" height="1.6" fill="#F4F8F0"></rect><rect x="0" y="12.31" width="30" height="1.6" fill="#B22234"></rect><rect x="0" y="13.85" width="30" height="1.6" fill="#F4F8F0"></rect><rect x="0" y="15.38" width="30" height="1.6" fill="#B22234"></rect><rect x="0" y="16.92" width="30" height="1.6" fill="#F4F8F0"></rect><rect x="0" y="18.46" width="30" height="1.6" fill="#B22234"></rect><rect x="0" y="0" width="12" height="10.77" fill="#3C3B6E"></rect><rect x="1.2" y="1.2" width="0.6" height="0.6" fill="#F4F8F0"></rect><rect x="3" y="1.2" width="0.6" height="0.6" fill="#F4F8F0"></rect><rect x="4.8" y="1.2" width="0.6" height="0.6" fill="#F4F8F0"></rect><rect x="6.6" y="1.2" width="0.6" height="0.6" fill="#F4F8F0"></rect><rect x="8.4" y="1.2" width="0.6" height="0.6" fill="#F4F8F0"></rect><rect x="10.2" y="1.2" width="0.6" height="0.6" fill="#F4F8F0"></rect><rect x="2.1" y="3.1" width="0.6" height="0.6" fill="#F4F8F0"></rect><rect x="3.9" y="3.1" width="0.6" height="0.6" fill="#F4F8F0"></rect><rect x="5.7" y="3.1" width="0.6" height="0.6" fill="#F4F8F0"></rect><rect x="7.5" y="3.1" width="0.6" height="0.6" fill="#F4F8F0"></rect><rect x="9.3" y="3.1" width="0.6" height="0.6" fill="#F4F8F0"></rect><rect x="1.2" y="5" width="0.6" height="0.6" fill="#F4F8F0"></rect><rect x="3" y="5" width="0.6" height="0.6" fill="#F4F8F0"></rect><rect x="4.8" y="5" width="0.6" height="0.6" fill="#F4F8F0"></rect><rect x="6.6" y="5" width="0.6" height="0.6" fill="#F4F8F0"></rect><rect x="8.4" y="5" width="0.6" height="0.6" fill="#F4F8F0"></rect><rect x="10.2" y="5" width="0.6" height="0.6" fill="#F4F8F0"></rect><rect x="2.1" y="6.9" width="0.6" height="0.6" fill="#F4F8F0"></rect><rect x="3.9" y="6.9" width="0.6" height="0.6" fill="#F4F8F0"></rect><rect x="5.7" y="6.9" width="0.6" height="0.6" fill="#F4F8F0"></rect><rect x="7.5" y="6.9" width="0.6" height="0.6" fill="#F4F8F0"></rect><rect x="9.3" y="6.9" width="0.6" height="0.6" fill="#F4F8F0"></rect><rect x="1.2" y="8.8" width="0.6" height="0.6" fill="#F4F8F0"></rect><rect x="3" y="8.8" width="0.6" height="0.6" fill="#F4F8F0"></rect><rect x="4.8" y="8.8" width="0.6" height="0.6" fill="#F4F8F0"></rect><rect x="6.6" y="8.8" width="0.6" height="0.6" fill="#F4F8F0"></rect><rect x="8.4" y="8.8" width="0.6" height="0.6" fill="#F4F8F0"></rect><rect x="10.2" y="8.8" width="0.6" height="0.6" fill="#F4F8F0"></rect></svg>