<svg xmlns="http://www.w3.org/2000/svg" viewBox="0 0 30 20" shape-rendering="crispEdges"><rect x="0" y="0" width="30" height="6.4" fill="#0099B5"></rect><rect x="0" y="6.4" width="30" height="0.5" fill="#CE1126"></rect><rect x="0" y="6.9" width="30" height="6.2" fill="#F4F8F0"></rect><rect x="0" y="13.1" width="30" height="0.5" fill="#CE1126"></rect><rect x="0" y="13.6" width="30" height="6.4" fill="#1EB53A"></rect><rect x="4.35" y="1" width="2.11" height="1" fill="#F4F8F0"></rect><rect x="3.53" y="2" width="3.75" height="1" fill="#F4F8F0"></rect><rect x="3.42" y="3" width="3.95" height="1" fill="#F4F8F0"></rect><rect x="3.88" y="4" width="3.04" height="1" fill="#F4F8F0"></rect><rect x="5.01" y="2" width="2.99" height="1" fill="#0099B5"></rect><rect x="4.88" y="3" width="3.24" height="1" fill="#0099B5"></rect><rect x="5.48" y="4" width="2.03" height="1" fill="#0099B5"></rect><rect x="8.2" y="1.4" width="0.55" height="0.55" fill="#F4F8F0"></rect><rect x="9.8" y="1.4" width="0.55" height="0.55" fill="#F4F8F0"></rect><rect x="11.4" y="1.4" width="0.55" height="0.55" fill="#F4F8F0"></rect><rect x="8.2" y="2.9" width="0.55" height="0.55" fill="#F4F8F0"></rect><rect x="9.8" y="2.9" width="0.55" height="0.55" fill="#F4F8F0"></rect><rect x="11.4" y="2.9" width="0.55" height="0.55" fill="#F4F8F0"></rect><rect x="13" y="2.9" width="0.55" height="0.55" fill="#F4F8F0"></rect><rect x="8.2" y="4.4" width="0.55" height="0.55" fill="#F4F8F0"></rect><rect x="9.8" y="4.4" width="0.55" height="0.55" fill="#F4F8F0"></rect><rect x="11.4" y="4.4" width="0.55" height="0.55" fill="#F4F8F0"></rect><rect x="13" y="4.4" width="0.55" height="0.55" fill="#F4F8F0"></rect><rect x="14.6" y="4.4" width="0.55" height="0.55" fill="#F4F8F0"></rect></svg>